<?xml version="1.0" encoding="UTF-8"?>
<svg id="rawgraphs-icons" xmlns="http://www.w3.org/2000/svg" width="56" height="56" viewBox="0 0 56 56">
  <defs>
    <style>
      .cls-1 {
        fill: #06c26c;
      }

      .cls-2 {
        fill: #95e5c0;
      }
    </style>
  </defs>
  <g id="secundary"/>
  <g id="primary">
    <polygon class="cls-1" points="46.30469 46.80469 44.86523 46.80469 46.06122 48 8 48 8 9.93878 9.19531 11.13477 9.19531 9.69531 7.5 8 5.80469 9.69531 5.80469 11.13477 7 9.93878 7 49 46.06122 49 44.86523 50.19531 46.30469 50.19531 48 48.5 46.30469 46.80469"/>
  </g>
  <path class="cls-2" d="M24.51171,20.96213c.92544-.98469,2.19511-1.47703,3.81004-1.47703,1.49439,0,2.69052,.42084,3.58838,1.26354,.89888,.8427,1.34832,1.91932,1.34832,3.22985,0,.79469-.16343,1.43821-.48928,1.9326s-.99286,1.22064-2.00308,2.17979c-.73443,.69663-1.21145,1.28602-1.43311,1.76917s-.333,1.19715-.333,2.13995h-2.00001c0-1.07049,.12768-1.93362,.38203-2.5894,.25536-.65475,.82125-1.40553,1.69971-2.25231l.91727-.88765c.27477-.25434,.49847-.51992,.66905-.79776,.31154-.48621,.46681-.99184,.46681-1.51687,0-.73341-.2237-1.36978-.6711-1.9091s-1.18693-.80899-2.21963-.80899c-1.27682,0-2.16038,.46374-2.64966,1.39327-.27477,.51584-.43208,1.2615-.46987,2.23495h-2.00001c0-1.61799,.4617-2.91831,1.38714-3.90401Zm2.44333,12.90306h2.23597v2.3371h-2.23597v-2.3371Z"/>
</svg>